# xmcd
#
# Track frame offsets:
#	150
#	9575
#	19788
#	35888
#	51575
#	73375
#	90613
#	104250
#	117588
#	135388
#	151488
#	166713
#	176263
#	186438
#	200800
#	211800
#	224000
#	239850
#	258663
#	273538
#
# Disc length: 3772 seconds
#
# Revision: 1
# Processed by: cddbd v1.5.1PL0 Copyright (c) Steve Scherf et al.
# Submitted via: audiograbber 1.81.02
#
DISCID=3d0eba14
DTITLE=garner wayne and his saddle pals - The Best Of Garner Wayne and His Saddle P
DTITLE=als
DYEAR=1993
DGENRE=Country
TTITLE0=fill her up with beetroot juice
TTITLE1=thank you all
TTITLE2=you're the nearest - thing to heaven
TTITLE3=the golden rule if life
TTITLE4=roaming 'round new zealand
TTITLE5=heartaches by the number blackboard of my heart pearly shells
TTITLE6=birthday wishes
TTITLE7=love in a fowlhouse
TTITLE8=that little kid sister of mine little white cross on the hill there's a
TTITLE8=star shining bright
TTITLE9=strathaven
TTITLE10=growing old together
TTITLE11=new zealand is my home
TTITLE12=our big rodeo
TTITLE13=shanty town
TTITLE14=kiwi hobo
TTITLE15=yonder comes a sucker the wabash cannon ball new zealand cowboy
TTITLE16=tom dooley do what you do well a fowlhouse wedding
TTITLE17=funny face happy anniversary almost persuaded
TTITLE18=shot gun wedding fowlhouse honeymoon
TTITLE19=road to happiness
EXTD=
EXTT0=
EXTT1=
EXTT2=
EXTT3=
EXTT4=
EXTT5=
EXTT6=
EXTT7=
EXTT8=
EXTT9=
EXTT10=
EXTT11=
EXTT12=
EXTT13=
EXTT14=
EXTT15=
EXTT16=
EXTT17=
EXTT18=
EXTT19=
PLAYORDER=
